<?xml version="1.0" encoding="UTF-8"?>
<svg id="Layer_1" data-name="Layer 1" xmlns="http://www.w3.org/2000/svg" viewBox="0 0 318.31 385.49">
  <defs>
    <style>
      .cls-1 {
        fill: #fb7185;
      }

      .cls-1, .cls-2 {
        stroke-width: 0px;
      }

      .cls-2 {
        fill: #34d399;
      }
    </style>
  </defs>
  <path class="cls-1" d="m267.58,231.01c-57.79-42.15-113.44-87.47-166.77-135.12-17.81-15.92-35.41-32.08-52.55-48.71-4.56-4.65,2-11.68,6.96-7.18,35.5,35.79,72.84,70.04,110.86,103.21,33.67,29.19,68.38,57.56,103.83,84.55.93.65,1.14,1.96.44,2.86-.66.86-1.9,1.03-2.77.39h0Z"/>
  <path class="cls-2" d="m285.12,251.63c-37.2,13.6-82.04,20.49-118.78,1.33-11.38-6.07-22.38-16.5-26.51-29.39-8.91-27.5,2.74-59.33,11.91-85.25,11.09-29.5,24.34-57.99,34.68-87.51,5.83-16.72,10.42-33.51,12.07-50.8,0,0,6.16,1.18,6.16,1.18,20.41,4.82,39.42,14.62,56.25,26.96,24.97,18.39,43.85,45.03,51.85,75.05,8.14,29.5,6.57,60.88.23,90.55-.34,1.23-2.13.93-1.96-.38,3.33-19.65,4.62-39.78,2.35-59.58-5.93-56.95-43.37-99.38-97.09-117.21-4.4-1.44-9.07-2.79-13.58-3.55,0,0,6.96-5.37,6.96-5.37-.8,12.32-3.25,24.21-6.42,36.01-11.5,41.92-31.51,80.74-44.6,121.91-5.56,19.06-12.64,44.62-.88,62.06,8.11,11.28,21.92,18.17,35.38,22.07,21.63,6.15,45.66,5.97,68.21,3.39,7.74-.9,15.49-2.07,23.26-3.4.55-.1,1.07.27,1.17.82.08.48-.19.94-.64,1.11h0Z"/>
  <path class="cls-1" d="m55.77,40.58c27.5,35.64,59.19,75.17,86.49,110.95,19.02,24.93,37.65,50.02,54.06,76.87,4.09,6.77,8,13.68,11.39,21.05,4.79,10.64,12.39,30.13-2.17,36.52-11.84,4.23-29.45-1.4-41-4.61-15.24-4.7-29.83-10.26-44.54-16.45,0,0,7.32-11.81,7.31-11.81,5.06,4.47,9.76,9.26,14.37,14.15,22.42,24.05,41.42,51.14,56.96,80.06,6.15,11.54,11.74,23.35,16.72,35.41.42,1.02-.06,2.19-1.09,2.61-.98.4-2.1-.03-2.56-.96-11.34-23.12-24.93-45.07-40.63-65.45-15.57-20.06-32.78-39.01-52.57-54.93-6.42-5.05-.65-14.97,6.86-12,7.05,3.15,14.34,6.24,21.61,9.09,12.68,4.79,41.61,16.09,53.96,13.15.56-.24.23-.17.09.13,1.25-2.88.19-6.77-.59-10-3.05-10.55-8.45-20.44-13.96-30.16-23.41-39.95-52.09-76.91-80.27-113.66-19.18-24.73-38.66-49.28-58.27-73.78-3.91-5.07,3.39-11.41,7.83-6.2h0Z"/>
  <path class="cls-2" d="m176.17,89.5c29.77-11.54,69.03-7.66,97.34,6.37,4.13,2.02,8.09,4.35,11.87,6.84.53.27.77.95.42,1.47-.27.41-.79.55-1.22.37-8.07-3.5-16.49-6.21-25.11-7.97-17.25-3.55-35.14-3.58-52.49-.73-8.72,1.47-17.38,3.53-25.66,6.67-8.68,3-13.55-9.24-5.14-13.02h0Z"/>
  <path class="cls-2" d="m100.98,349.22c-22.04,9.28-48.01,8.28-69.08-3.89-27.61-15.89-38.72-49.25-27.69-78.82,6.15-16.69,16.6-29.59,29.93-40.46,32.56-25.55,74.04-32.75,113.68-28.54,20.16,2.33,40.16,7.54,58.44,16.35-55.9-7.37-132.43-2.55-169.34,45.97-2.9,4.01-5.47,8.53-7.34,13.12-8.76,20.75-2.47,42.42,15.2,56.11,15.98,12.45,36.45,17.31,56.28,19.17,0,0-.09,1-.09,1h0Z"/>
</svg>