<?xml version="1.0" encoding="UTF-8"?>
<svg id="Layer_1" data-name="Layer 1" xmlns="http://www.w3.org/2000/svg" viewBox="0 0 312.01 390.81">
  <defs>
    <style>
      .cls-1 {
        fill: #fb7185;
      }

      .cls-1, .cls-2 {
        stroke-width: 0px;
      }

      .cls-2 {
        fill: #34d399;
      }
    </style>
  </defs>
  <path class="cls-1" d="m262.54,231.94C183.1,174.65,107.24,112.14,36.1,44.82c-2.17-2.13.83-5.8,3.39-3.54,43.61,42.62,89.74,83.24,136.79,122.11,28.37,23.32,57.32,45.89,86.85,67.74.23.16.28.48.11.71-.16.22-.47.27-.69.11h0Z"/>
  <path class="cls-2" d="m152.89,244.8c12.79,18.3,38.13,19.45,58.78,18.97,11.31-.42,22.6-1.79,33.79-3.61,11.23-1.87,22.4-4.21,33.51-6.85.27-.06.54.1.6.37.06.26-.09.52-.34.59-16.41,5.05-33.08,9.51-50.03,12.54-17.22,2.95-34.87,4.83-52.26,1.62-12.24-2.23-24.13-7.85-31.82-18.06-3.77-5.3,3.94-10.87,7.78-5.58h0Z"/>
  <path class="cls-2" d="m306.98,195.11c6.36-35.22,6.06-72.84-8.47-106.06-17.1-40.15-54.69-69.07-96.12-80.87-2.4-.66-4.92-1.3-7.2-1.67,0,0,3.48-2.68,3.48-2.68-.93,10.75-2.95,21.29-5.41,31.68-9.99,41.21-26.25,80.49-38.02,121.08-5.59,19.77-10.89,40.39-10.38,60.88.34,9.98,2.53,19.85,8.03,27.33,3.62,5.18-3.88,10.75-7.78,5.58-6.78-9.54-9.13-21.33-9.37-32.66-.23-21.92,5.47-42.84,11.61-63.49,9.31-30.35,21.02-59.99,30.79-90.06,6.76-20.92,12.91-42.28,14.92-64.17,3.66.7,7.55,1.49,10.95,2.61,42.3,13.14,80.33,43.73,96.92,85.43,13.85,33.82,13.33,71.76,6.05,107.08h0Z"/>
  <path class="cls-1" d="m39.74,41.54c40.94,49.39,81.93,98.58,119.53,150.55,9.2,13.81,67.25,90.47,33.78,96.15-20.52,2.76-61.98-14.71-81.8-23.16,0,0,3.66-5.9,3.66-5.91,5.22,4.51,9.91,9.18,14.66,14.09,23.17,24.22,42.9,51.6,59.14,80.88,6.44,11.71,12.32,23.71,17.57,35.97.11.25,0,.55-.26.66-.25.11-.53,0-.65-.25-17.03-35.97-39.44-69.4-66.38-98.67-8.92-9.59-18.32-18.99-28.47-27.23-3.19-2.62-.07-7.6,3.66-5.9,13.22,5.96,71.52,30.98,81.92,21.42,9.63-21.24-54.51-103.5-69.48-123.53-23.9-31.66-49.61-62.95-75.06-93.44-5.15-6.18-10.33-12.35-15.56-18.46-.88-1.03-.76-2.58.27-3.46,1.04-.89,2.6-.76,3.48.29h0Z"/>
  <path class="cls-2" d="m169.55,93.2c35.26-11.73,77.11-7.99,109.35,10.47-8.29-3.59-16.94-6.38-25.8-8.19-17.72-3.65-36.11-3.67-53.93-.75-8.91,1.5-17.75,3.6-26.21,6.8,0,0-3.4-8.33-3.4-8.33h0Z"/>
  <path class="cls-2" d="m90.19,355.03c-29.52,4.69-64.53-3.53-81.67-30.11-10.83-16.81-10.98-38.17-2.44-56.02,2.6-5.47,5.96-10.8,9.67-15.58,28.7-35.29,76.76-47.31,120.34-46.73,15.78.24,31.66,2.17,47.07,5.52,5.11,1.09,10.18,2.44,15.2,3.88-57.36-7.39-133.1-2.91-172.46,45.15-2.03,2.7-4.05,5.63-5.69,8.6-13.08,22.84-8.67,48.29,12.24,64.6,16.42,12.8,37.45,17.79,57.82,19.69.27.02.47.26.45.54-.03.27-.27.46-.53.46h0Z"/>
</svg>