<?xml version="1.0" encoding="utf-8"?>
<!-- Generator: Adobe Illustrator 28.0.0, SVG Export Plug-In . SVG Version: 6.00 Build 0)  -->
<svg version="1.1" id="Layer_1" xmlns="http://www.w3.org/2000/svg" xmlns:xlink="http://www.w3.org/1999/xlink" x="0px" y="0px"
	 viewBox="0 0 263.4 92.3" style="enable-background:new 0 0 263.4 92.3;" xml:space="preserve">
<style type="text/css">
	.st0{fill:none;stroke:#231F20;stroke-width:3;stroke-linecap:round;stroke-opacity:0.8;}
</style>
<g id="graphic">
	<path class="st0" d="M4.5,53.4l0.6,1.4l0.6,1.4l0.6,1.4l0.6,1.3l0.6,1.2l0.6,1.1l0.6,0.9l0.6,0.8l0.6,0.6l0.6,0.4l0.6,0.1l0.6-0.1
		l0.6-0.4l0.6-0.7l0.6-1l0.6-1.2l0.6-1.5l0.6-1.8l0.6-2l0.6-2.2l0.6-2.5l0.6-2.7l0.6-2.8l0.6-3l0.6-3.1l0.6-3.1l0.6-3.2l0.6-3.2
		l0.6-3.1l0.6-3l0.6-2.9l0.6-2.7l0.6-2.6l0.6-2.3l0.6-2.1L26.1,9l0.6-1.5l0.6-1.1l0.6-0.8l0.6-0.4h0.6l0.6,0.4l0.6,0.8l0.6,1.1
		L31.5,9l0.6,1.9l0.6,2.2l0.6,2.5l0.6,2.8l0.6,3.1l0.6,3.3l0.6,3.5l0.6,3.7l0.6,3.8l0.6,3.9l0.6,3.9l0.6,3.9l0.6,3.9l0.6,3.8
		l0.6,3.6l0.6,3.5l0.6,3.3l0.6,3l0.6,2.8l0.6,2.5l0.6,2.2l0.6,1.8l0.6,1.5l0.6,1.1l0.6,0.8l0.6,0.4h0.6l0.6-0.3l0.6-0.7l0.6-1
		l0.6-1.3l0.6-1.6l0.6-1.8l0.6-2l0.6-2.2l0.6-2.4l0.6-2.5l0.6-2.6l0.6-2.6l0.6-2.6l0.6-2.6l0.6-2.6l0.6-2.5l0.6-2.4l0.6-2.2l0.6-2
		l0.6-1.8l0.6-1.6l0.6-1.4l0.6-1.2l0.6-0.9l0.6-0.7l0.6-0.5l0.6-0.2h0.6l0.6,0.2l0.6,0.4l0.6,0.6l0.6,0.8l0.6,0.9l0.6,1l0.6,1.1
		l0.6,1.1l0.6,1.1l0.6,1.1l0.6,1.1l0.6,1l0.6,0.9l0.6,0.8l0.6,0.7l0.6,0.5l0.6,0.3l0.6,0.1l0.6-0.1l0.6-0.3l0.6-0.5l0.6-0.7l0.6-1
		l0.6-1.2l0.6-1.4l0.6-1.5l0.6-1.7l0.6-1.8l0.6-1.9l0.6-2l0.6-2.1l0.6-2.1l0.6-2.1l0.6-2l0.6-2l0.6-1.8l0.6-1.7l0.6-1.5l0.6-1.3
		l0.6-1.1l0.6-0.8l0.6-0.6l0.6-0.3l0.6,0.1l0.6,0.4l0.6,0.7l0.6,1l0.6,1.4l0.6,1.7l0.6,2l0.6,2.3l0.6,2.6l0.6,2.8l0.6,3.1l0.6,3.3
		l0.6,3.4l0.6,3.6l0.6,3.7l0.6,3.7l0.6,3.7l0.6,3.7l0.6,3.6l0.6,3.5l0.6,3.4l0.6,3.2l0.6,3l0.6,2.7l0.6,2.4l0.6,2.1l0.6,1.8l0.6,1.4
		l0.6,1l0.6,0.6l0.6,0.2l0.6-0.2l0.6-0.5l0.6-0.9l0.6-1.3l0.6-1.7l0.6-2l0.6-2.3l0.6-2.6l0.6-2.8l0.6-3.1l0.6-3.2l0.6-3.4l0.6-3.5
		l0.6-3.6l0.6-3.6l0.6-3.6l0.6-3.5l0.6-3.4l0.6-3.3l0.6-3.1l0.6-2.9l0.6-2.7l0.6-2.4l0.6-2.2l0.6-1.9l0.6-1.6l0.6-1.3l0.6-1l0.6-0.6
		l0.6-0.3h0.6l0.6,0.3l0.6,0.5l0.6,0.8l0.6,1l0.6,1.2l0.6,1.4l0.6,1.6l0.6,1.7l0.6,1.8l0.6,1.8l0.6,1.8l0.6,1.8l0.6,1.8l0.6,1.7
		l0.6,1.6l0.6,1.5l0.6,1.3l0.6,1.2l0.6,1l0.6,0.8l0.6,0.6l0.6,0.4l0.6,0.2h0.6l0.6-0.2l0.6-0.4l0.6-0.6l0.6-0.8l0.6-0.9l0.6-1
		l0.6-1.1l0.6-1.2l0.6-1.2l0.6-1.2l0.6-1.2l0.6-1.2l0.6-1.1l0.6-1l0.6-0.8l0.6-0.7l0.6-0.5l0.6-0.3l0.6-0.1l0.6,0.2l0.6,0.4l0.6,0.7
		l0.6,1l0.6,1.2l0.6,1.5l0.6,1.7l0.6,1.9l0.6,2.2l0.6,2.3l0.6,2.5l0.6,2.7l0.6,2.8l0.6,2.9l0.6,2.9l0.6,2.9l0.6,2.9l0.6,2.8l0.6,2.7
		l0.6,2.6l0.6,2.4l0.6,2.2l0.6,2l0.6,1.7l0.6,1.4l0.6,1.1l0.6,0.7l0.6,0.4h0.6l0.6-0.4l0.6-0.7l0.6-1.1l0.6-1.5l0.6-1.8l0.6-2.2
		l0.6-2.5l0.6-2.8l0.6-3.1l0.6-3.3l0.6-3.5l0.6-3.7l0.6-3.8l0.6-3.9l0.6-3.9l0.6-3.9l0.6-3.9l0.6-3.8l0.6-3.7l0.6-3.5l0.6-3.3
		l0.6-3.1l0.6-2.8l0.6-2.5l0.6-2.2l0.6-1.9l0.6-1.5l0.6-1.2l0.6-0.8l0.6-0.4h0.6l0.6,0.3l0.6,0.7l0.6,1l0.6,1.3l0.6,1.6l0.6,1.9
		l0.6,2.2l0.6,2.4l0.6,2.6l0.6,2.7l0.6,2.8l0.6,2.9l0.6,2.9l0.6,2.9l0.6,2.9l0.6,2.8l0.6,2.7l0.6,2.5l0.6,2.4l0.6,2.2l0.6,2l0.6,1.8
		l0.6,1.5l0.6,1.3l0.6,1l0.6,0.7l0.6,0.5l0.6,0.2h0.6l0.6-0.2l0.6-0.4l0.6-0.6l0.6-0.8l0.6-0.9l0.6-1.1l0.6-1.1l0.6-1.2l0.6-1.2
		l0.6-1.2l0.6-1.2l0.6-1.1l0.6-1l0.6-0.9l0.6-0.8l0.6-0.6l0.6-0.5l0.6-0.3l0.6-0.1l0.6,0.1l0.6,0.3l0.6,0.6l0.6,0.8l0.6,1l0.6,1.1
		l0.6,1.3l0.6,1.5l0.6,1.6l0.6,1.7l0.6,1.8l0.6,1.8l0.6,1.8l0.6,1.8l0.6,1.8l0.6,1.7l0.6,1.6l0.6,1.4l0.6,1.3l0.6,1.1l0.6,0.8
		l0.6,0.6l0.6,0.3h0.6l0.6-0.3l0.6-0.6l0.6-0.9l0.6-1.2l0.6-1.5l0.6-1.8l0.6-2.1l0.6-2.4l0.6-2.6l0.6-2.9l0.6-3.1l0.6-3.2l0.6-3.4
		l0.6-3.5l0.6-3.6l0.6-3.6l0.6-3.6l0.6-3.5l0.6-3.4l0.6-3.3l0.6-3.1l0.6-2.9l0.6-2.6l0.6-2.4l0.6-2l0.6-1.7l0.6-1.4l0.6-1l0.6-0.6
		l0.6-0.2l0.6,0.2l0.6,0.6l0.6,1l0.6,1.3l0.6,1.7l0.6,2l0.6,2.4l0.6,2.7l0.6,2.9l0.6,3.1l0.6,3.3l0.6,3.5l0.6,3.6l0.5,2.9"/>
</g>
</svg>
