<svg
  stroke-width="0.3"
  xmlns="http://www.w3.org/2000/svg"
  stroke-dasharray="none"
  fill="white"
  stroke="white"
  font-family="Arial, sans-serif"
  font-size="10pt"
  font-weight="normal"
  font-style="normal"
  width="122"
  height="150"
  view-box="0 0 122 150"
  style="width: 122px height: 150px"
>
  <symbol 
    id="graphic"
  >
    <g
      class-name="vf-stave"
      id="vf-auto1096"
      stroke-width="1"
      fill="#999999"
      stroke="#999999"
    >
      <path fill="none" d="M0 50L120 50"></path>
      <path fill="none" d="M0 60L120 60"></path>
      <path fill="none" d="M0 70L120 70"></path>
      <path fill="none" d="M0 80L120 80"></path>
      <path fill="none" d="M0 90L120 90"></path>
    </g>
    <g class-name="vf-stavebarline" id="vf-auto1098"></g>
    <g class-name="vf-clef" id="vf-auto1099">
      <path
        stroke="none"
        d="M20.191 63.208C20.135 62.731,20.191 62.703,20.444 62.45C24.824 58.378,28.138 53.24,28.138 47.034C28.138 43.524,27.155 40.042,25.498 37.627C24.881 36.729,23.842 35.606,23.392 35.606C22.831 35.606,21.567 36.644,20.781 37.543C17.776 40.856,16.794 45.911,16.794 50.123C16.794 52.454,17.102 55.093,17.383 56.75C17.468 57.227,17.496 57.311,17.018 57.733C11.178 62.534,5 68.319,5 76.49C5 83.51,9.802 90.193,19.714 90.193C20.641 90.193,21.708 90.109,22.522 89.94C22.943 89.856,23.027 89.828,23.112 90.305C23.589 93.029,24.207 96.539,24.207 98.449C24.207 104.43,20.163 105.16,17.776 105.16C15.586 105.16,14.547 104.514,14.547 103.98C14.547 103.7,14.912 103.587,15.839 103.278C17.102 102.913,18.535 101.846,18.535 99.488C18.535 97.269,17.131 95.36,14.66 95.36C11.964 95.36,10.335 97.522,10.335 100.021C10.335 102.632,11.908 106.62,18.029 106.62C20.725 106.62,25.976 105.384,25.976 98.533C25.976 96.202,25.246 92.383,24.824 89.856C24.74 89.379,24.768 89.435,25.33 89.182C29.43 87.554,32.125 84.128,32.125 79.551C32.125 74.384,28.334 69.807,22.382 69.807C21.343 69.807,21.343 69.807,21.202 69.077M24.01 41.867C25.33 41.867,26.425 42.962,26.425 45.181C26.425 49.674,22.578 53.324,19.405 56.104C19.124 56.357,18.956 56.3,18.872 55.767C18.703 54.728,18.619 53.352,18.619 52.06C18.619 45.742,21.539 41.867,24.01 41.867M19.602 69.414C19.714 70.172,19.714 70.144,18.984 70.369C15.446 71.576,13.115 74.777,13.115 78.231C13.115 81.853,15.025 84.437,17.776 85.391C18.113 85.504,18.591 85.616,18.872 85.616C19.18 85.616,19.349 85.419,19.349 85.167C19.349 84.886,19.04 84.774,18.759 84.661C17.046 83.931,15.839 82.19,15.839 80.337C15.839 78.006,17.411 76.293,19.882 75.591C20.528 75.423,20.612 75.479,20.697 75.928L22.718 87.975C22.803 88.424,22.747 88.424,22.157 88.536C21.511 88.649,20.697 88.733,19.882 88.733C12.806 88.733,8.229 84.802,8.229 79.186C8.229 76.799,8.65 73.598,11.992 69.807C14.435 67.111,16.288 65.595,18.17 64.079C18.591 63.742,18.675 63.798,18.759 64.219M22.382 75.844C22.297 75.339,22.353 75.226,22.831 75.283C26.116 75.563,28.812 78.315,28.812 81.853C28.812 84.409,27.267 86.458,25.021 87.61C24.544 87.834,24.459 87.834,24.375 87.357"
      ></path>
    </g>
    <g class-name="vf-stavenote" id="vf-auto1100">
      <g
        class-name="vf-notehead"
        id="vf-auto1104"
        pointer-events="bounding-box"
      >
        <path
          stroke="none"
          d="M67.984 74.946C62.621 74.946,59.251 77.164,59.251 79.916C59.251 82.64,61.554 85.054,67.591 85.054C74.218 85.054,76.324 82.752,76.324 79.916C76.324 77.052,71.747 74.946,67.984 74.946M63.744 77.445C64.193 76.041,65.682 75.844,66.945 75.844C69.725 75.844,71.943 78.821,71.943 81.264C71.943 82.499,71.41 83.65,70.09 83.959C69.697 84.072,69.248 84.128,68.827 84.128C67.366 84.128,65.878 83.145,65.036 82.022C64.221 81.095,63.632 79.719,63.632 78.428C63.632 78.091,63.66 77.782,63.744 77.445"
        ></path>
        <path
          stroke="none"
          d="M47.603 86.88C47.743 87.048,47.855 87.076,47.968 87.076C48.108 87.076,48.22 86.992,48.22 86.992C49.428 86.318,50.411 85.223,51.422 84.521C55.016 82.022,56.251 79.551,56.251 77.697C56.251 75.395,54.482 73.935,52.629 73.822C51.927 73.822,50.972 74.131,50.411 74.496C50.158 74.693,49.709 75.058,49.512 75.058C49.428 75.058,49.4 75.058,49.316 75.03C49.035 74.918,48.866 74.609,48.866 74.328C48.894 73.457,49.147 63.742,49.147 62.927C49.147 62.478,48.782 62.253,48.389 62.253C47.799 62.253,47.153 62.647,47.125 63.377C47.125 63.377,47.294 86.458,47.603 86.88M49.035 83.285C49.035 83.285,48.894 80.842,48.894 79.242C48.894 78.596,48.95 78.091,48.979 77.95C49.259 77.136,50.888 75.956,51.815 75.956C52.994 75.956,53.471 77.304,53.471 78.315C53.471 80.477,51.618 82.668,49.877 83.763C49.709 83.847,49.596 83.875,49.484 83.875C49.119 83.875,49.035 83.482,49.035 83.285"
        ></path>
      </g>
      <g
        class-name="vf-notehead"
        id="vf-auto1105"
        pointer-events="bounding-box"
      >
        <path
          stroke="none"
          d="M67.984 59.946C62.621 59.946,59.251 62.164,59.251 64.916C59.251 67.64,61.554 70.054,67.591 70.054C74.218 70.054,76.324 67.752,76.324 64.916C76.324 62.052,71.747 59.946,67.984 59.946M63.744 62.445C64.193 61.041,65.682 60.844,66.945 60.844C69.725 60.844,71.943 63.821,71.943 66.264C71.943 67.499,71.41 68.65,70.09 68.959C69.697 69.072,69.248 69.128,68.827 69.128C67.366 69.128,65.878 68.145,65.036 67.022C64.221 66.095,63.632 64.719,63.632 63.428C63.632 63.091,63.66 62.782,63.744 62.445"
        ></path>
      </g>
    </g>
  </symbol>
</svg>