<?xml version="1.0" encoding="utf-8"?>
<!-- Generator: Adobe Illustrator 28.0.0, SVG Export Plug-In . SVG Version: 6.00 Build 0)  -->
<svg version="1.1" id="Layer_1" xmlns="http://www.w3.org/2000/svg" xmlns:xlink="http://www.w3.org/1999/xlink" x="0px" y="0px"
	 viewBox="0 0 160 120" style="enable-background:new 0 0 160 120;" xml:space="preserve">
<g id="graphic">
	<g pointer-events="bounding-box">
		<path d="M36,76.6c-9.2,0-14.9,3.8-14.9,8.5c0,4.8,3.9,8.7,14.2,8.7c11.3,0,14.9-3.9,14.9-8.7S42.5,76.6,36,76.6 M28.9,80.9
			c0.9-2.4,3.2-2.7,5.5-2.7c4.8,0,8.5,5.1,8.5,9.2c0,2.1-0.9,4.1-3.2,4.6c-0.7,0.2-1.4,0.3-2.2,0.3c-2.6,0-5.1-1.7-6.5-3.6
			c-1.4-1.5-2.4-3.9-2.4-6.2C28.7,81.9,28.7,81.4,28.9,80.9"/>
		<path d="M1.2,97c0.2,0.3,0.3,0.3,0.7,0.3c0.2,0,0.3-0.2,0.3-0.2c2.1-1.2,3.8-3.1,5.5-4.3c6.2-4.3,8.2-8.5,8.2-11.6
			c0-3.9-3.1-6.5-6.2-6.7c-1.2,0-2.9,0.5-3.8,1.2c-0.3,0.3-1.2,1-1.5,1c-0.2,0-0.2,0-0.3,0c-0.5-0.2-0.9-0.7-0.9-1.2
			c0-1.5,0.5-18.1,0.5-19.5c0-0.9-0.7-1.2-1.4-1.2c-1,0-2.1,0.7-2.2,1.9C0.5,56.8,0.6,96.3,1.2,97 M3.7,91c0,0-0.2-4.1-0.2-6.8
			c0-1,0.2-1.9,0.2-2.2c0.5-1.4,3.2-3.4,4.8-3.4c2.1,0,2.9,2.4,2.9,4.1c0,3.8-3.2,7.5-6.2,9.2C4.9,92,4.8,92,4.6,92
			C3.9,92,3.7,91.3,3.7,91"/>
	</g>
	<g pointer-events="bounding-box">
		<path d="M145.9,29.6c-9.2,0-14.9,3.8-14.9,8.5s3.9,8.7,14.2,8.7c11.3,0,14.9-3.9,14.9-8.7S152.4,29.6,145.9,29.6 M138.7,33.8
			c0.9-2.4,3.2-2.7,5.5-2.7c4.8,0,8.5,5.1,8.5,9.2c0,2.1-0.9,4.1-3.1,4.6c-0.7,0.2-1.4,0.3-2.2,0.3c-2.6,0-5.1-1.7-6.5-3.6
			c-1.4-1.5-2.4-3.9-2.4-6.2C138.5,35,138.5,34.5,138.7,33.8"/>
	</g>
</g>
</svg>
